<svg width="30" height="30" viewBox="0 0 207 207" fill="none" xmlns="http://www.w3.org/2000/svg">
<path d="M34.5705 0.0115967H60.4337C79.4787 0.0115967 94.9178 15.4507 94.9178 34.4957V60.3589C94.9178 79.4039 79.4787 94.8431 60.4337 94.8431H34.5705C15.5255 94.8431 0.0863342 79.4039 0.0863342 60.3589V34.4957C0.0863342 15.4507 15.5255 0.0115967 34.5705 0.0115967Z" fill="#FFCB44"/>
<path d="M34.5705 112.086H60.4337C79.4787 112.086 94.9178 127.525 94.9178 146.57V172.433C94.9178 191.478 79.4787 206.917 60.4337 206.917H34.5705C15.5255 206.917 0.0863342 191.478 0.0863342 172.433V146.57C0.0863342 127.525 15.5255 112.086 34.5705 112.086Z" fill="#FFCB44"/>
<path d="M192.276 164.898L172.508 184.64V22.2883L192.276 42.0304C195.644 45.3967 201.104 45.3947 204.47 42.026C207.837 38.6573 207.835 33.1978 204.466 29.8315L182.163 7.56328C172.066 -2.52175 155.708 -2.52175 145.61 7.56328L123.308 29.8315C119.939 33.1978 119.937 38.6573 123.303 42.026C126.669 45.3947 132.129 45.3967 135.498 42.0304L155.266 22.2883V184.64L135.498 164.898C132.126 161.532 126.665 161.536 123.299 164.906C119.932 168.278 119.936 173.739 123.307 177.105L145.61 199.374C155.719 209.43 172.054 209.43 182.163 199.374L204.465 177.105C207.837 173.739 207.84 168.278 204.474 164.906C201.108 161.536 195.646 161.532 192.276 164.898Z" fill="#FFCB44"/>
</svg>
