<svg width="30" height="30" viewBox="0 0 207 207" fill="none" xmlns="http://www.w3.org/2000/svg">
<g clip-path="url(#clip0_5_18)">
<path d="M125.142 49.7981L157.128 81.7841L42.0816 196.813C35.6154 203.279 26.8387 206.917 17.6998 206.917H-0.000224882V189.217C-0.000224882 180.07 3.62945 171.302 10.1042 164.836L125.142 49.7981ZM199.546 7.37147C190.717 -1.457 176.397 -1.457 167.56 7.37147L137.324 37.6073L169.31 69.5932L199.546 39.3574C208.374 30.529 208.374 16.2086 199.546 7.37147ZM105.752 44.7976L92.8194 31.8653L73.3951 51.2897C71.7139 52.9709 69.5067 53.8158 67.2996 53.8158C65.0925 53.8158 62.8854 52.9709 61.2042 51.2897C57.8332 47.9186 57.8332 42.4698 61.2042 39.0988L80.6286 19.6744L69.7999 8.84576C58.0142 -2.94853 38.9088 -2.94853 27.1232 8.83713L8.83687 27.1234C-2.9488 38.9091 -2.9488 58.0145 8.83687 69.8001L44.7974 105.761L105.76 44.7976H105.752ZM101.156 162.128L137.117 198.089C148.903 209.875 168.008 209.875 179.794 198.089L198.08 179.803C209.866 168.017 209.866 148.912 198.08 137.126L187.251 126.297L167.827 145.722C164.456 149.093 159.007 149.093 155.636 145.722C153.955 144.04 153.11 141.833 153.11 139.626C153.11 137.419 153.955 135.212 155.636 133.531L175.06 114.106L162.128 101.174L101.165 162.137L101.156 162.128Z" fill="#FFCB44"/>
</g>
<defs>
<clipPath id="clip0_5_18">
<rect width="206.917" height="206.917" fill="white"/>
</clipPath>
</defs>
</svg>
