<svg width="30" height="30" viewBox="0 0 207 207" fill="none" xmlns="http://www.w3.org/2000/svg">
<path d="M42.0093 24.6973L55.3727 20.8865L59.1834 7.52314C59.7973 5.37883 61.0927 3.49271 62.8738 2.15001C64.6548 0.807316 66.8246 0.0810547 69.0551 0.0810547C71.2856 0.0810547 73.4554 0.807316 75.2364 2.15001C77.0175 3.49271 78.3129 5.37883 78.9268 7.52314L82.7375 20.8865L96.1009 24.6973C98.2452 25.3112 100.131 26.6066 101.474 28.3876C102.817 30.1687 103.543 32.3385 103.543 34.569C103.543 36.7994 102.817 38.9692 101.474 40.7503C100.131 42.5313 98.2452 43.8267 96.1009 44.4406L82.7375 48.2514L78.9268 61.6148C78.3129 63.7591 77.0175 65.6452 75.2364 66.9879C73.4554 68.3306 71.2856 69.0569 69.0551 69.0569C66.8246 69.0569 64.6548 68.3306 62.8738 66.9879C61.0927 65.6452 59.7973 63.7591 59.1834 61.6148L55.3727 48.2514L42.0093 44.4406C39.865 43.8267 37.9789 42.5313 36.6362 40.7503C35.2935 38.9692 34.5672 36.7994 34.5672 34.569C34.5672 32.3385 35.2935 30.1687 36.6362 28.3876C37.9789 26.6066 39.865 25.3112 42.0093 24.6973ZM199.56 128.156L186.196 124.345L182.385 110.982C181.772 108.837 180.476 106.951 178.695 105.609C176.914 104.266 174.744 103.54 172.514 103.54C170.283 103.54 168.113 104.266 166.332 105.609C164.551 106.951 163.256 108.837 162.642 110.982L158.831 124.345L145.468 128.156C143.324 128.77 141.438 130.065 140.095 131.846C138.752 133.627 138.026 135.797 138.026 138.028C138.026 140.258 138.752 142.428 140.095 144.209C141.438 145.99 143.324 147.285 145.468 147.899L158.831 151.71L162.642 165.073C163.256 167.218 164.551 169.104 166.332 170.447C168.113 171.789 170.283 172.515 172.514 172.515C174.744 172.515 176.914 171.789 178.695 170.447C180.476 169.104 181.772 167.218 182.385 165.073L186.196 151.71L199.56 147.899C201.704 147.285 203.59 145.99 204.933 144.209C206.275 142.428 207.002 140.258 207.002 138.028C207.002 135.797 206.275 133.627 204.933 131.846C203.59 130.065 201.704 128.77 199.56 128.156ZM153.158 38.8797L164.849 42.2163L168.203 53.9157C168.749 55.7796 169.884 57.4163 171.438 58.5807C172.993 59.7452 174.882 60.3745 176.825 60.3745C178.767 60.3745 180.656 59.7452 182.211 58.5807C183.765 57.4163 184.9 55.7796 185.446 53.9157L188.783 42.2335L200.491 38.8797C202.355 38.3339 203.991 37.1988 205.156 35.6444C206.32 34.0901 206.949 32.2003 206.949 30.2582C206.949 28.3161 206.32 26.4262 205.156 24.8719C203.991 23.3176 202.355 22.1825 200.491 21.6366L188.8 18.3001L185.446 6.59201C184.9 4.72818 183.765 3.09142 182.211 1.927C180.656 0.762581 178.767 0.133216 176.825 0.133216C174.882 0.133216 172.993 0.762581 171.438 1.927C169.884 3.09142 168.749 4.72818 168.203 6.59201L164.866 18.2828L153.158 21.6366C151.295 22.1825 149.658 23.3176 148.493 24.8719C147.329 26.4262 146.7 28.3161 146.7 30.2582C146.7 32.2003 147.329 34.0901 148.493 35.6444C149.658 37.1988 151.295 38.3339 153.158 38.8797ZM147.985 109.128L57.7264 197.206C51.3692 203.499 42.7795 207.02 33.8345 206.999C24.8894 206.978 16.3164 203.417 9.98883 197.094C3.65319 190.744 0.0950928 182.139 0.0950928 173.169C0.0950928 164.199 3.65319 155.595 9.98883 149.244L100.722 60.7181C105.497 56.0547 111.544 52.9082 118.104 51.6747C124.663 50.4412 131.44 51.176 137.583 53.7863C143.726 56.3967 148.958 60.7661 152.623 66.3444C156.287 71.9226 158.22 78.4603 158.176 85.1344C158.163 89.6153 157.253 94.0483 155.5 98.1721C153.747 102.296 151.186 106.027 147.968 109.145L147.985 109.128ZM94.7042 124.983L83.4186 113.732L28.1631 167.643C26.7122 169.144 25.9113 171.157 25.9339 173.246C25.9565 175.334 26.8007 177.329 28.2838 178.799C29.7978 180.252 31.8151 181.064 33.9136 181.064C36.0122 181.064 38.0295 180.252 39.5435 178.799L94.7042 124.983ZM132.329 84.9619C132.338 83.391 131.882 81.8525 131.019 80.5398C130.157 79.227 128.925 78.1987 127.479 77.5841C126.033 76.9695 124.438 76.7961 122.894 77.0856C121.35 77.3752 119.926 78.1148 118.801 79.2114L101.946 95.6527L113.215 106.921L129.915 90.6091C130.667 89.8761 131.266 89.001 131.678 88.0345C132.089 87.0681 132.305 86.0296 132.311 84.9792L132.329 84.9619Z" fill="#FFCB44"/>
</svg>
