<svg width="30" height="30" viewBox="0 0 207 207" fill="none" xmlns="http://www.w3.org/2000/svg">
<path d="M66.6101 26.3179L71.9469 17.6964C75.3151 12.3869 79.9701 8.01444 85.4798 4.98484C90.9895 1.95523 97.1752 0.366699 103.463 0.366699C109.751 0.366699 115.936 1.95523 121.446 4.98484C126.956 8.01444 131.611 12.3869 134.979 17.6964L153.352 46.9062L165.06 38.914C167.171 37.4729 169.662 36.6899 172.218 36.6638C174.774 36.6377 177.281 37.3697 179.421 38.7674C181.562 40.165 183.24 42.1657 184.244 44.5165C185.247 46.8674 185.532 49.4631 185.062 51.9757L178.716 85.9705C177.98 89.9247 175.888 93.4985 172.8 96.0762C169.713 98.6539 165.823 100.074 161.801 100.093C160.68 100.093 124.728 93.1264 124.728 93.1264C122.228 92.6331 119.93 91.4124 118.122 89.6176C116.313 87.8228 115.075 85.5338 114.563 83.0379C114.051 80.542 114.288 77.9505 115.243 75.5886C116.199 73.2267 117.831 71.1997 119.934 69.762L131.962 61.5456L112.994 31.4305C111.995 29.8112 110.601 28.4728 108.941 27.5414C107.282 26.6101 105.413 26.1164 103.511 26.1069C101.608 26.0974 99.7345 26.5724 98.0662 27.4872C96.3979 28.402 94.9899 29.7264 93.9749 31.3357L88.621 39.9573C87.7254 41.4025 86.5539 42.6572 85.1734 43.6497C83.793 44.6422 82.2305 45.3531 80.5753 45.7418C78.9201 46.1305 77.2046 46.1894 75.5266 45.915C73.8486 45.6407 72.2411 45.0386 70.7959 44.143C69.3506 43.2474 68.0959 42.076 67.1034 40.6955C66.1109 39.315 65.4 37.7526 65.0113 36.0974C64.6226 34.4422 64.5638 32.7266 64.8381 31.0487C65.1124 29.3707 65.7146 27.7632 66.6101 26.3179ZM201.339 124.767L196.356 116.741C195.471 115.277 194.305 114.003 192.925 112.993C191.544 111.983 189.977 111.257 188.315 110.857C186.652 110.457 184.926 110.39 183.237 110.662C181.549 110.933 179.931 111.536 178.477 112.437C177.023 113.338 175.762 114.518 174.767 115.91C173.773 117.301 173.064 118.876 172.682 120.543C172.3 122.21 172.253 123.937 172.543 125.622C172.833 127.308 173.454 128.919 174.371 130.363L179.354 138.398C180.394 140.088 180.963 142.024 181.004 144.007C181.044 145.99 180.554 147.948 179.585 149.679C178.616 151.409 177.202 152.85 175.489 153.851C173.777 154.852 171.828 155.378 169.845 155.374H129.323V142.338C129.327 139.818 128.594 137.352 127.215 135.243C125.836 133.134 123.871 131.474 121.561 130.467C119.251 129.459 116.698 129.149 114.214 129.573C111.73 129.997 109.424 131.138 107.58 132.854L83.6291 155.202C81.7845 156.796 80.2988 158.762 79.2701 160.973C78.2414 163.183 77.6931 165.586 77.6613 168.024C77.6296 170.461 78.1151 172.878 79.0858 175.114C80.0565 177.351 81.4904 179.356 83.2928 180.997L107.588 203.551C109.433 205.265 111.738 206.403 114.221 206.826C116.703 207.249 119.255 206.937 121.563 205.93C123.871 204.923 125.835 203.264 127.213 201.157C128.592 199.05 129.325 196.586 129.323 194.068V181.239H169.845C176.441 181.249 182.92 179.497 188.611 176.162C194.302 172.828 198.998 168.033 202.214 162.274C205.429 156.515 207.047 150.001 206.899 143.406C206.751 136.812 204.844 130.377 201.374 124.767H201.339ZM69.8346 72.3398C69.4039 70.1042 68.5364 67.9756 67.2819 66.0757C66.0274 64.1758 64.4105 62.5421 62.5237 61.2679C60.6369 59.9938 58.5174 59.1043 56.2864 58.6505C54.0554 58.1966 51.7568 58.1872 49.5222 58.6229L15.8464 65.2529C13.3446 65.7446 11.0439 66.9649 9.23354 68.7604C7.42322 70.5559 6.18404 72.8465 5.67178 75.3442C5.15952 77.842 5.39703 80.4354 6.35445 82.7986C7.31188 85.1617 8.9465 87.1891 11.0528 88.6259L22.9506 96.7474L5.58678 124.767C2.07327 130.347 0.137682 136.774 -0.0141308 143.366C-0.165943 149.958 1.4717 156.467 4.72462 162.202C7.91593 168.022 12.6273 172.867 18.3561 176.22C24.0849 179.572 30.6164 181.307 37.2537 181.239L47.5479 181.135C50.9777 181.101 54.2535 179.705 56.6545 177.256C59.0556 174.806 60.3852 171.503 60.3509 168.074C60.3166 164.644 58.9212 161.368 56.4716 158.967C54.0221 156.566 50.7191 155.236 47.2892 155.271L37.0727 155.374C35.09 155.374 33.1432 154.845 31.4332 153.842C29.7232 152.838 28.312 151.397 27.3454 149.665C26.3788 147.934 25.8918 145.977 25.9346 143.994C25.9774 142.012 26.5485 140.077 27.589 138.39L44.3493 111.352L56.178 119.431C58.2888 120.871 60.7788 121.653 63.3339 121.68C65.889 121.706 68.3946 120.975 70.5345 119.578C72.6743 118.182 74.3526 116.183 75.3573 113.833C76.3621 111.484 76.6484 108.89 76.1801 106.378L69.8346 72.3398Z" fill="#FFCB44"/>
</svg>
